<svg width="81" height="62" viewBox="0 0 81 62" fill="none" xmlns="http://www.w3.org/2000/svg">
<path d="M78.8643 8.73022L71.8391 1.71632C70.8759 0.753867 69.7043 0.272461 68.3273 0.272461C66.9489 0.272461 65.7774 0.753867 64.8141 1.71632L30.9269 35.6003L15.7398 20.3859C14.7754 19.423 13.6046 18.9422 12.2276 18.9422C10.8496 18.9422 9.67881 19.423 8.71445 20.3859L1.68928 27.3999C0.724919 28.3626 0.24292 29.5319 0.24292 30.9074C0.24292 32.2819 0.724919 33.4523 1.68928 34.4147L20.3886 53.0837L27.4143 60.0976C28.3782 61.0608 29.5493 61.5417 30.9269 61.5417C32.304 61.5417 33.4752 61.0596 34.4395 60.0976L41.4651 53.0837L78.8643 15.7447C79.8278 14.7819 80.3107 13.6128 80.3107 12.2372C80.3114 10.8623 79.8278 9.69304 78.8643 8.73022Z" fill="white"/>
</svg>
