<svg width="326" height="363" viewBox="0 0 326 363" fill="none" xmlns="http://www.w3.org/2000/svg">
<rect width="326" height="363" rx="7" fill="#F5F5F5"/>
<path d="M131.633 283H129.162L122.824 272.912V283H120.354V268.781H122.824L129.182 278.908V268.781H131.633V283ZM133.879 277.619C133.879 276.584 134.084 275.653 134.494 274.826C134.904 273.993 135.48 273.355 136.223 272.912C136.965 272.463 137.818 272.238 138.781 272.238C140.207 272.238 141.363 272.697 142.248 273.615C143.14 274.533 143.622 275.751 143.693 277.268L143.703 277.824C143.703 278.866 143.501 279.797 143.098 280.617C142.701 281.438 142.128 282.072 141.379 282.521C140.637 282.971 139.777 283.195 138.801 283.195C137.31 283.195 136.115 282.701 135.217 281.711C134.325 280.715 133.879 279.39 133.879 277.736V277.619ZM136.252 277.824C136.252 278.911 136.477 279.764 136.926 280.383C137.375 280.995 138 281.301 138.801 281.301C139.602 281.301 140.223 280.988 140.666 280.363C141.115 279.738 141.34 278.824 141.34 277.619C141.34 276.551 141.109 275.705 140.646 275.08C140.191 274.455 139.569 274.143 138.781 274.143C138.007 274.143 137.391 274.452 136.936 275.07C136.48 275.682 136.252 276.6 136.252 277.824ZM150.246 277.619C150.246 276.584 150.451 275.653 150.861 274.826C151.271 273.993 151.848 273.355 152.59 272.912C153.332 272.463 154.185 272.238 155.148 272.238C156.574 272.238 157.73 272.697 158.615 273.615C159.507 274.533 159.989 275.751 160.061 277.268L160.07 277.824C160.07 278.866 159.868 279.797 159.465 280.617C159.068 281.438 158.495 282.072 157.746 282.521C157.004 282.971 156.145 283.195 155.168 283.195C153.677 283.195 152.482 282.701 151.584 281.711C150.692 280.715 150.246 279.39 150.246 277.736V277.619ZM152.619 277.824C152.619 278.911 152.844 279.764 153.293 280.383C153.742 280.995 154.367 281.301 155.168 281.301C155.969 281.301 156.59 280.988 157.033 280.363C157.482 279.738 157.707 278.824 157.707 277.619C157.707 276.551 157.476 275.705 157.014 275.08C156.558 274.455 155.936 274.143 155.148 274.143C154.374 274.143 153.758 274.452 153.303 275.07C152.847 275.682 152.619 276.6 152.619 277.824ZM167.609 274.602C167.297 274.549 166.975 274.523 166.643 274.523C165.555 274.523 164.823 274.94 164.445 275.773V283H162.072V272.434H164.338L164.396 273.615C164.969 272.697 165.764 272.238 166.779 272.238C167.118 272.238 167.398 272.284 167.619 272.375L167.609 274.602ZM168.469 277.639C168.469 276.011 168.846 274.706 169.602 273.723C170.357 272.733 171.369 272.238 172.639 272.238C173.758 272.238 174.663 272.629 175.354 273.41V268H177.727V283H175.578L175.461 281.906C174.751 282.766 173.804 283.195 172.619 283.195C171.382 283.195 170.38 282.697 169.611 281.701C168.85 280.705 168.469 279.351 168.469 277.639ZM170.842 277.844C170.842 278.918 171.047 279.758 171.457 280.363C171.874 280.962 172.463 281.262 173.225 281.262C174.195 281.262 174.904 280.829 175.354 279.963V275.451C174.917 274.605 174.214 274.182 173.244 274.182C172.476 274.182 171.883 274.488 171.467 275.1C171.05 275.705 170.842 276.62 170.842 277.844ZM184.855 283.195C183.352 283.195 182.131 282.723 181.193 281.779C180.262 280.829 179.797 279.566 179.797 277.99V277.697C179.797 276.643 179.999 275.702 180.402 274.875C180.812 274.042 181.385 273.394 182.121 272.932C182.857 272.469 183.677 272.238 184.582 272.238C186.021 272.238 187.131 272.697 187.912 273.615C188.7 274.533 189.094 275.832 189.094 277.512V278.469H182.189C182.261 279.341 182.551 280.031 183.059 280.539C183.573 281.047 184.217 281.301 184.992 281.301C186.079 281.301 186.965 280.861 187.648 279.982L188.928 281.203C188.505 281.835 187.938 282.326 187.229 282.678C186.525 283.023 185.734 283.195 184.855 283.195ZM184.572 274.143C183.921 274.143 183.394 274.37 182.99 274.826C182.593 275.282 182.339 275.917 182.229 276.73H186.75V276.555C186.698 275.76 186.486 275.161 186.115 274.758C185.744 274.348 185.23 274.143 184.572 274.143ZM196.477 274.602C196.164 274.549 195.842 274.523 195.51 274.523C194.423 274.523 193.69 274.94 193.312 275.773V283H190.939V272.434H193.205L193.264 273.615C193.837 272.697 194.631 272.238 195.646 272.238C195.985 272.238 196.265 272.284 196.486 272.375L196.477 274.602ZM203.898 280.129C203.898 279.706 203.723 279.383 203.371 279.162C203.026 278.941 202.45 278.745 201.643 278.576C200.835 278.407 200.161 278.192 199.621 277.932C198.436 277.359 197.844 276.529 197.844 275.441C197.844 274.53 198.228 273.768 198.996 273.156C199.764 272.544 200.741 272.238 201.926 272.238C203.189 272.238 204.208 272.551 204.982 273.176C205.764 273.801 206.154 274.611 206.154 275.607H203.781C203.781 275.152 203.612 274.774 203.273 274.475C202.935 274.169 202.486 274.016 201.926 274.016C201.405 274.016 200.979 274.136 200.646 274.377C200.321 274.618 200.158 274.94 200.158 275.344C200.158 275.708 200.311 275.992 200.617 276.193C200.923 276.395 201.542 276.6 202.473 276.809C203.404 277.01 204.133 277.255 204.66 277.541C205.194 277.821 205.588 278.16 205.842 278.557C206.102 278.954 206.232 279.436 206.232 280.002C206.232 280.952 205.839 281.724 205.051 282.316C204.263 282.902 203.231 283.195 201.955 283.195C201.089 283.195 200.318 283.039 199.641 282.727C198.964 282.414 198.436 281.984 198.059 281.438C197.681 280.891 197.492 280.301 197.492 279.67H199.797C199.829 280.23 200.041 280.663 200.432 280.969C200.822 281.268 201.34 281.418 201.984 281.418C202.609 281.418 203.085 281.301 203.41 281.066C203.736 280.826 203.898 280.513 203.898 280.129ZM97.9023 305.689H92.3945L91.2422 309H88.6738L94.0449 294.781H96.2617L101.643 309H99.0645L97.9023 305.689ZM93.0879 303.697H97.209L95.1484 297.799L93.0879 303.697ZM108.957 306.129C108.957 305.706 108.781 305.383 108.43 305.162C108.085 304.941 107.508 304.745 106.701 304.576C105.894 304.407 105.22 304.192 104.68 303.932C103.495 303.359 102.902 302.529 102.902 301.441C102.902 300.53 103.286 299.768 104.055 299.156C104.823 298.544 105.799 298.238 106.984 298.238C108.247 298.238 109.266 298.551 110.041 299.176C110.822 299.801 111.213 300.611 111.213 301.607H108.84C108.84 301.152 108.671 300.774 108.332 300.475C107.993 300.169 107.544 300.016 106.984 300.016C106.464 300.016 106.037 300.136 105.705 300.377C105.38 300.618 105.217 300.94 105.217 301.344C105.217 301.708 105.37 301.992 105.676 302.193C105.982 302.395 106.6 302.6 107.531 302.809C108.462 303.01 109.191 303.255 109.719 303.541C110.253 303.821 110.646 304.16 110.9 304.557C111.161 304.954 111.291 305.436 111.291 306.002C111.291 306.952 110.897 307.724 110.109 308.316C109.322 308.902 108.29 309.195 107.014 309.195C106.148 309.195 105.376 309.039 104.699 308.727C104.022 308.414 103.495 307.984 103.117 307.438C102.74 306.891 102.551 306.301 102.551 305.67H104.855C104.888 306.23 105.1 306.663 105.49 306.969C105.881 307.268 106.398 307.418 107.043 307.418C107.668 307.418 108.143 307.301 108.469 307.066C108.794 306.826 108.957 306.513 108.957 306.129ZM119.289 306.129C119.289 305.706 119.113 305.383 118.762 305.162C118.417 304.941 117.84 304.745 117.033 304.576C116.226 304.407 115.552 304.192 115.012 303.932C113.827 303.359 113.234 302.529 113.234 301.441C113.234 300.53 113.618 299.768 114.387 299.156C115.155 298.544 116.132 298.238 117.316 298.238C118.579 298.238 119.598 298.551 120.373 299.176C121.154 299.801 121.545 300.611 121.545 301.607H119.172C119.172 301.152 119.003 300.774 118.664 300.475C118.326 300.169 117.876 300.016 117.316 300.016C116.796 300.016 116.369 300.136 116.037 300.377C115.712 300.618 115.549 300.94 115.549 301.344C115.549 301.708 115.702 301.992 116.008 302.193C116.314 302.395 116.932 302.6 117.863 302.809C118.794 303.01 119.523 303.255 120.051 303.541C120.585 303.821 120.979 304.16 121.232 304.557C121.493 304.954 121.623 305.436 121.623 306.002C121.623 306.952 121.229 307.724 120.441 308.316C119.654 308.902 118.622 309.195 117.346 309.195C116.48 309.195 115.708 309.039 115.031 308.727C114.354 308.414 113.827 307.984 113.449 307.438C113.072 306.891 112.883 306.301 112.883 305.67H115.188C115.22 306.23 115.432 306.663 115.822 306.969C116.213 307.268 116.73 307.418 117.375 307.418C118 307.418 118.475 307.301 118.801 307.066C119.126 306.826 119.289 306.513 119.289 306.129ZM126.223 309H123.85V298.434H126.223V309ZM123.703 295.689C123.703 295.325 123.817 295.022 124.045 294.781C124.279 294.54 124.611 294.42 125.041 294.42C125.471 294.42 125.803 294.54 126.037 294.781C126.271 295.022 126.389 295.325 126.389 295.689C126.389 296.048 126.271 296.347 126.037 296.588C125.803 296.822 125.471 296.939 125.041 296.939C124.611 296.939 124.279 296.822 124.045 296.588C123.817 296.347 123.703 296.048 123.703 295.689ZM128.4 303.639C128.4 301.998 128.785 300.689 129.553 299.713C130.327 298.73 131.353 298.238 132.629 298.238C133.833 298.238 134.781 298.658 135.471 299.498L135.578 298.434H137.717V308.678C137.717 310.064 137.284 311.158 136.418 311.959C135.559 312.76 134.396 313.16 132.932 313.16C132.157 313.16 131.398 312.997 130.656 312.672C129.921 312.353 129.361 311.933 128.977 311.412L130.1 309.986C130.829 310.852 131.727 311.285 132.795 311.285C133.583 311.285 134.204 311.07 134.66 310.641C135.116 310.217 135.344 309.592 135.344 308.766V308.053C134.66 308.814 133.749 309.195 132.609 309.195C131.372 309.195 130.36 308.704 129.572 307.721C128.791 306.738 128.4 305.377 128.4 303.639ZM130.764 303.844C130.764 304.905 130.979 305.742 131.408 306.354C131.844 306.959 132.447 307.262 133.215 307.262C134.172 307.262 134.882 306.852 135.344 306.031V301.383C134.895 300.582 134.191 300.182 133.234 300.182C132.453 300.182 131.844 300.491 131.408 301.109C130.979 301.728 130.764 302.639 130.764 303.844ZM142.365 298.434L142.434 299.654C143.215 298.71 144.24 298.238 145.51 298.238C147.71 298.238 148.83 299.498 148.869 302.018V309H146.496V302.154C146.496 301.484 146.35 300.989 146.057 300.67C145.77 300.344 145.298 300.182 144.641 300.182C143.684 300.182 142.971 300.615 142.502 301.48V309H140.129V298.434H142.365ZM155.949 309.195C154.445 309.195 153.225 308.723 152.287 307.779C151.356 306.829 150.891 305.566 150.891 303.99V303.697C150.891 302.643 151.092 301.702 151.496 300.875C151.906 300.042 152.479 299.394 153.215 298.932C153.951 298.469 154.771 298.238 155.676 298.238C157.115 298.238 158.225 298.697 159.006 299.615C159.794 300.533 160.188 301.832 160.188 303.512V304.469H153.283C153.355 305.341 153.645 306.031 154.152 306.539C154.667 307.047 155.311 307.301 156.086 307.301C157.173 307.301 158.059 306.861 158.742 305.982L160.021 307.203C159.598 307.835 159.032 308.326 158.322 308.678C157.619 309.023 156.828 309.195 155.949 309.195ZM155.666 300.143C155.015 300.143 154.488 300.37 154.084 300.826C153.687 301.282 153.433 301.917 153.322 302.73H157.844V302.555C157.792 301.76 157.58 301.161 157.209 300.758C156.838 300.348 156.324 300.143 155.666 300.143ZM161.594 303.639C161.594 302.011 161.971 300.706 162.727 299.723C163.482 298.733 164.494 298.238 165.764 298.238C166.883 298.238 167.788 298.629 168.479 299.41V294H170.852V309H168.703L168.586 307.906C167.876 308.766 166.929 309.195 165.744 309.195C164.507 309.195 163.505 308.697 162.736 307.701C161.975 306.705 161.594 305.351 161.594 303.639ZM163.967 303.844C163.967 304.918 164.172 305.758 164.582 306.363C164.999 306.962 165.588 307.262 166.35 307.262C167.32 307.262 168.029 306.829 168.479 305.963V301.451C168.042 300.605 167.339 300.182 166.369 300.182C165.601 300.182 165.008 300.488 164.592 301.1C164.175 301.705 163.967 302.62 163.967 303.844ZM181.281 295.865V298.434H183.146V300.191H181.281V306.09C181.281 306.493 181.359 306.786 181.516 306.969C181.678 307.145 181.965 307.232 182.375 307.232C182.648 307.232 182.925 307.2 183.205 307.135V308.971C182.665 309.12 182.144 309.195 181.643 309.195C179.82 309.195 178.908 308.189 178.908 306.178V300.191H177.17V298.434H178.908V295.865H181.281ZM184.23 303.619C184.23 302.584 184.436 301.653 184.846 300.826C185.256 299.993 185.832 299.355 186.574 298.912C187.316 298.463 188.169 298.238 189.133 298.238C190.559 298.238 191.714 298.697 192.6 299.615C193.492 300.533 193.973 301.751 194.045 303.268L194.055 303.824C194.055 304.866 193.853 305.797 193.449 306.617C193.052 307.438 192.479 308.072 191.73 308.521C190.988 308.971 190.129 309.195 189.152 309.195C187.661 309.195 186.467 308.701 185.568 307.711C184.676 306.715 184.23 305.39 184.23 303.736V303.619ZM186.604 303.824C186.604 304.911 186.828 305.764 187.277 306.383C187.727 306.995 188.352 307.301 189.152 307.301C189.953 307.301 190.575 306.988 191.018 306.363C191.467 305.738 191.691 304.824 191.691 303.619C191.691 302.551 191.46 301.705 190.998 301.08C190.542 300.455 189.921 300.143 189.133 300.143C188.358 300.143 187.743 300.452 187.287 301.07C186.831 301.682 186.604 302.6 186.604 303.824ZM204.738 305.602L206.887 298.434H209.416L205.217 310.602C204.572 312.379 203.479 313.268 201.936 313.268C201.59 313.268 201.21 313.209 200.793 313.092V311.256L201.242 311.285C201.841 311.285 202.29 311.174 202.59 310.953C202.896 310.738 203.137 310.374 203.312 309.859L203.654 308.951L199.943 298.434H202.502L204.738 305.602ZM210.188 303.619C210.188 302.584 210.393 301.653 210.803 300.826C211.213 299.993 211.789 299.355 212.531 298.912C213.273 298.463 214.126 298.238 215.09 298.238C216.516 298.238 217.671 298.697 218.557 299.615C219.449 300.533 219.93 301.751 220.002 303.268L220.012 303.824C220.012 304.866 219.81 305.797 219.406 306.617C219.009 307.438 218.436 308.072 217.688 308.521C216.945 308.971 216.086 309.195 215.109 309.195C213.618 309.195 212.424 308.701 211.525 307.711C210.633 306.715 210.188 305.39 210.188 303.736V303.619ZM212.561 303.824C212.561 304.911 212.785 305.764 213.234 306.383C213.684 306.995 214.309 307.301 215.109 307.301C215.91 307.301 216.532 306.988 216.975 306.363C217.424 305.738 217.648 304.824 217.648 303.619C217.648 302.551 217.417 301.705 216.955 301.08C216.499 300.455 215.878 300.143 215.09 300.143C214.315 300.143 213.7 300.452 213.244 301.07C212.788 301.682 212.561 302.6 212.561 303.824ZM228.42 307.965C227.723 308.785 226.734 309.195 225.451 309.195C224.305 309.195 223.436 308.86 222.844 308.189C222.258 307.519 221.965 306.549 221.965 305.279V298.434H224.338V305.25C224.338 306.591 224.895 307.262 226.008 307.262C227.16 307.262 227.938 306.848 228.342 306.021V298.434H230.715V309H228.479L228.42 307.965ZM234.611 306.5C235.054 306.5 235.396 306.627 235.637 306.881C235.878 307.128 235.998 307.441 235.998 307.818C235.998 308.189 235.878 308.499 235.637 308.746C235.396 308.987 235.054 309.107 234.611 309.107C234.188 309.107 233.853 308.987 233.605 308.746C233.358 308.505 233.234 308.196 233.234 307.818C233.234 307.441 233.355 307.128 233.596 306.881C233.837 306.627 234.175 306.5 234.611 306.5Z" fill="black"/>
<path d="M162.286 184.201C203.022 184.201 236.044 151.249 236.044 110.601C236.044 69.9521 203.022 37 162.286 37C121.551 37 88.5282 69.9521 88.5282 110.601C88.5282 151.249 121.551 184.201 162.286 184.201Z" fill="url(#paint0_linear)"/>
<path d="M194.347 195.163C194.347 195.163 205.065 200.521 215.485 196.205L224.565 176.706L221.737 142.175L211.317 117.021C211.317 117.021 196.134 119.998 197.771 137.71L194.05 194.418C194.05 194.418 194.05 194.716 194.347 195.163Z" fill="url(#paint1_linear)"/>
<path d="M142.694 176.557C142.694 177.153 139.568 178.79 136.888 179.981C135.102 180.725 133.613 181.469 133.316 181.618C126.171 185.041 118.132 187.274 110.541 188.911C105.033 190.102 97.2922 191.293 93.7196 185.488C90.1471 179.683 98.4831 173.432 102.056 171.348C106.373 169.115 111.136 167.925 115.751 167.032C119.919 166.287 124.087 165.99 128.106 165.692C128.106 165.692 130.934 165.394 134.06 164.799C136.888 164.352 140.014 163.757 141.056 163.311L142.694 176.557Z" fill="url(#paint2_linear)"/>
<path d="M142.694 176.557C142.694 177.153 139.568 178.79 136.888 179.981L134.358 164.948C137.186 164.501 140.312 163.906 141.354 163.459L142.694 176.557Z" fill="url(#paint3_linear)"/>
<path d="M209.382 123.421C209.382 123.421 203.279 145.152 204.618 169.115L218.164 175.664L222.63 143.663L209.382 123.421Z" fill="url(#paint4_linear)"/>
<path d="M228.436 95.29C228.436 95.29 231.413 108.835 230.222 117.021L232.604 122.23H237.069L244.81 114.788L249.573 108.835V104.518C249.573 104.518 245.852 89.6341 246.596 83.6804C246.596 83.6804 241.237 81.0013 240.493 81.0013C239.898 81.0013 226.5 83.6804 226.5 83.6804L228.436 95.29Z" fill="url(#paint5_linear)"/>
<path d="M231.859 110.025C231.859 110.025 234.241 115.235 244.214 107.197L248.68 109.43L248.978 114.342L243.024 120.593L235.283 123.272L229.329 118.807C229.329 118.807 227.989 113.746 227.989 113.449C227.989 113.151 228.584 110.025 228.584 110.025H231.859Z" fill="url(#paint6_linear)"/>
<path d="M116.495 167.18C116.495 167.18 115.006 174.027 112.773 179.832L109.499 181.32L108.308 173.134L113.369 167.18H116.495Z" fill="url(#paint7_linear)"/>
<path d="M139.865 178.492V178.344C139.865 178.195 139.419 168.371 137.484 164.65L137.335 164.501L137.484 164.352C137.484 164.352 141.801 161.673 146.415 161.673C146.564 161.673 146.564 161.673 146.713 161.673H146.862C146.862 161.673 150.285 166.139 149.392 174.027C149.243 174.176 147.011 177.004 140.014 178.344L139.865 178.492ZM137.781 164.501C139.568 168.073 140.014 176.409 140.163 177.897C146.415 176.706 148.797 174.176 149.095 173.878C149.839 166.734 147.011 162.566 146.564 161.971C142.545 161.971 138.675 164.055 137.781 164.501Z" fill="black"/>
<path d="M282.322 212.13C282.322 212.13 269.371 205.581 243.321 214.512C215.783 223.889 208.489 212.13 208.489 212.13C208.34 208.112 208.489 199.628 208.489 194.418C208.489 191.739 208.489 189.804 208.489 189.804V189.655C209.828 162.12 209.382 121.188 209.382 121.188C209.233 117.467 211.466 117.17 211.466 117.17C223.077 114.639 228.733 110.174 228.733 110.174C238.111 119.7 249.573 104.518 249.573 104.518L268.925 117.021L268.18 149.617C268.18 175.218 282.322 212.13 282.322 212.13Z" fill="url(#paint8_linear)"/>
<path d="M97.4411 76.536C97.4411 76.536 113.815 74.4522 110.541 85.7642C110.541 85.7642 107.117 97.6715 97.4411 103.179C97.4411 103.179 98.3342 110.323 101.609 116.872C101.609 116.872 109.499 130.119 99.674 138.454H86.5745L88.3608 128.333L86.5745 85.4665L89.8494 80.1082L97.4411 76.536Z" fill="url(#paint9_linear)"/>
<path d="M108.159 73.4099C111.285 76.5356 107.712 81.2985 105.331 84.1265C105.331 84.1265 98.4831 92.4616 93.5708 95.2896L87.9142 139.495L83.1508 174.92L76.4522 189.208C76.3033 189.506 73.0285 189.506 72.7308 189.655C69.6048 189.953 66.3299 190.102 63.2039 189.506C57.6962 188.613 50.9976 186.38 46.9785 182.362C40.5776 176.11 40.8753 163.161 44.8945 155.719C46.2342 153.189 47.425 149.914 46.5319 146.938C45.7876 144.407 43.8524 142.175 43.257 139.644C42.6616 137.263 42.8104 134.733 43.7036 132.351C45.6387 127.29 50.2533 124.611 54.4213 121.635C58.7382 118.509 63.2039 113.746 63.2039 108.09C63.3528 103.029 61.7153 98.1176 61.7153 93.057C61.8642 86.2103 63.5016 78.7682 69.6048 74.6006C74.9636 70.8796 81.8111 69.54 88.3608 69.54C94.1662 69.54 102.056 69.6889 107.117 72.9634C107.563 72.8145 107.861 73.1122 108.159 73.4099Z" fill="url(#paint10_linear)"/>
<path d="M117.239 164.352C116.048 170.455 112.476 176.409 108.159 181.618L108.01 186.679L106.968 211.982C106.968 211.982 98.3342 205.73 80.9179 211.982C66.181 217.191 52.0396 211.982 52.0396 211.982C57.9939 206.177 64.8413 199.777 68.4139 192.037C76.1545 175.516 59.4825 159.292 65.4368 142.473C66.9253 138.156 71.0933 133.84 75.1125 131.607C87.7654 124.165 104.437 137.412 113.071 147.98C117.239 153.487 118.281 158.994 117.239 164.352Z" fill="url(#paint11_linear)"/>
<path d="M74.9636 131.756C74.9636 131.756 83.4485 128.333 93.5708 137.71C93.5708 137.71 101.609 145.45 105.926 140.687C106.075 140.389 96.3991 131.012 95.5059 130.119C93.8685 128.333 94.3151 125.654 94.3151 123.421C94.4639 120.593 94.7617 117.765 95.0594 114.937C95.3571 113.002 95.5059 111.067 95.8037 108.983L82.5554 102.434C82.5554 102.434 81.9599 117.765 74.9636 131.756Z" fill="url(#paint12_linear)"/>
<path d="M108.159 181.767C108.605 181.171 109.052 180.576 109.499 179.981C107.712 180.278 106.075 180.725 104.289 181.171L92.2311 146.938C87.0211 132.203 75.4102 136.817 75.4102 136.817C59.929 144.11 73.0285 166.585 73.0285 166.585C82.7042 187.572 89.2539 194.567 91.6357 196.651C94.9105 201.563 101.907 201.116 107.266 200.521L108.159 181.767Z" fill="url(#paint13_linear)"/>
<path d="M95.8036 108.983L86.7233 104.518L82.4065 105.114C82.2576 107.048 81.8111 109.876 81.2156 113.151C84.3416 115.83 86.5745 114.193 86.5745 114.193C88.2119 117.17 91.9334 119.402 94.4639 120.891C94.6128 117.616 95.0594 113.598 95.8036 108.983Z" fill="url(#paint14_linear)"/>
<path d="M105.777 83.6804C105.777 83.6804 104.586 92.0155 104.586 95.29C104.586 95.29 104.586 99.011 107.563 101.839C107.563 101.839 109.499 103.179 105.777 107.346C104.884 109.281 103.991 111.216 103.247 113.151C102.353 115.086 101.609 117.765 99.3762 118.658C96.8457 119.551 94.1662 118.063 92.2311 116.574C90.1471 115.086 87.6165 113.151 86.4256 110.77C86.4256 110.77 85.5325 113.746 82.4065 112.109C82.4065 112.109 76.1545 108.388 74.8148 102.434C74.2193 99.9041 74.6659 96.6296 77.1965 95.29C80.7691 93.3551 81.8111 96.1831 83.1508 98.7134C83.8951 100.053 85.0859 101.393 86.2768 102.286C86.2768 102.286 83.7462 95.4389 88.8074 92.0155C89.1051 92.1643 101.163 88.4433 105.777 83.6804Z" fill="url(#paint15_linear)"/>
<path d="M105.777 83.6804C101.014 88.4433 88.9562 92.1643 88.9562 92.1643C87.7654 92.9086 87.0211 93.9504 86.5745 94.9923C95.2082 93.2062 105.033 88.8898 105.033 88.8898C105.479 86.2107 105.777 83.6804 105.777 83.6804Z" fill="url(#paint16_linear)"/>
<path d="M93.4219 137.71C93.4219 137.71 101.46 145.45 105.777 140.687C105.777 140.687 105.479 140.389 104.884 139.794C101.311 143.812 93.4219 136.966 90.4448 135.031C89.2539 134.286 88.0631 133.393 86.7234 132.947C88.8074 133.989 91.0402 135.477 93.4219 137.71Z" fill="url(#paint17_linear)"/>
<path d="M105.331 175.515C105.331 175.515 98.9297 156.613 91.1891 143.515L88.5096 145.747L89.8494 158.548L95.6548 172.241L100.567 178.492L103.395 177.897L105.331 175.515Z" fill="url(#paint18_linear)"/>
<path d="M247.638 94.9923C247.192 92.7597 246.894 90.5271 246.745 88.4433C244.959 89.634 241.535 91.8667 241.386 92.1643C241.237 92.462 234.39 97.6715 234.39 97.6715L229.329 99.7552C229.626 101.69 229.924 103.923 230.222 106.453C232.008 106.155 240.493 104.518 247.638 94.9923Z" fill="url(#paint19_linear)"/>
<path d="M252.55 72.9639L257.314 74.8988C257.314 74.8988 257.016 81.299 254.783 83.6804L249.127 80.1083L252.55 72.9639Z" fill="url(#paint20_linear)"/>
<path d="M214.294 66.266C215.634 71.0289 216.676 76.0895 217.122 81.1501C217.271 83.3827 217.271 85.4665 217.271 87.6991C217.42 91.2713 218.462 95.29 221.142 97.9692C223.077 99.9041 225.31 101.839 227.691 103.03C230.668 104.518 233.794 103.327 236.474 101.839C236.474 101.839 246.596 96.1831 248.382 90.8248C248.382 90.8248 248.978 93.3551 251.657 92.1643C255.825 90.2294 258.058 84.8711 256.123 80.5547C255.23 78.7686 253.592 77.2802 251.508 78.1733L252.997 71.4754L245.108 64.6287L232.901 63.8845H223.821L215.932 65.3729L214.294 66.266Z" fill="url(#paint21_linear)"/>
<path d="M249.127 75.1965L214.294 66.266C214.294 66.266 215.187 69.6893 216.08 74.1546L249.722 77.2803L249.127 75.1965Z" fill="url(#paint22_linear)"/>
<path d="M248.085 70.4335V86.8061C248.085 86.8061 253.146 78.4709 254.783 71.0289L252.55 65.9683L249.573 67.6055L248.085 70.4335Z" fill="url(#paint23_linear)"/>
<path d="M257.165 77.2802L214.89 65.8194C214.89 65.8194 215.485 53.9121 229.18 51.3818C238.409 49.7446 248.978 53.4656 254.932 60.7588C256.867 63.1403 258.356 65.9683 258.802 68.9451C258.951 70.2847 258.951 71.6243 258.802 72.815C258.654 73.4103 257.463 77.4291 257.165 77.2802Z" fill="url(#paint24_linear)"/>
<path d="M257.612 76.536L215.038 64.3311C212.954 63.5868 210.722 63.1403 208.489 62.9915C206.554 62.8426 203.279 63.2892 203.13 65.6706C202.832 68.2009 206.256 69.094 208.191 69.5405C210.424 70.1359 212.954 70.4336 215.336 70.5824C215.336 70.5824 235.134 72.6662 257.016 78.1733C256.867 78.3221 257.909 78.1733 257.612 76.536Z" fill="url(#paint25_linear)"/>
<path d="M227.989 119.7L229.329 122.379L234.39 114.044L242.428 122.379L249.871 107.793L235.283 113.151H234.39L232.901 113.449L229.478 114.639L227.989 119.7Z" fill="url(#paint26_linear)"/>
<path d="M234.39 113.151C234.39 113.151 238.707 117.17 243.47 122.379C243.47 122.379 261.333 112.853 248.829 100.648C248.68 100.648 246.745 108.537 234.39 113.151Z" fill="url(#paint27_linear)"/>
<path d="M230.073 104.518C230.073 104.518 230.817 110.472 234.39 113.151L228.436 122.379C228.436 122.379 220.546 112.704 230.073 104.518Z" fill="url(#paint28_linear)"/>
<path d="M257.463 134.435C257.463 134.435 257.016 140.687 257.314 152.296C257.314 152.296 256.867 171.646 254.188 175.516L265.501 179.534V156.166L262.226 139.645L257.463 134.435Z" fill="url(#paint29_linear)"/>
<path d="M268.925 117.021C276.368 121.337 282.173 127.589 282.768 136.37C283.364 144.557 282.62 153.04 282.173 161.227C282.173 161.227 281.875 170.753 282.173 176.706C282.173 176.706 282.62 189.507 268.925 187.274L257.76 173.134C257.76 173.134 258.802 155.422 257.76 144.11C257.909 144.11 253.741 119.849 268.925 117.021Z" fill="url(#paint30_linear)"/>
<path d="M258.058 169.115C257.909 171.646 257.909 173.134 257.909 173.134L261.928 178.344L266.394 178.195L274.879 176.26L278.005 172.539C269.818 166.287 258.058 169.115 258.058 169.115Z" fill="url(#paint31_linear)"/>
<path d="M226.649 173.581C226.649 173.581 230.073 179.534 226.649 189.06C240.046 192.93 254.337 195.014 268.329 194.716C278.452 194.418 280.982 186.53 279.94 178.195C279.94 178.195 274.432 167.478 254.486 172.241C254.486 172.241 235.581 175.218 226.649 173.581Z" fill="url(#paint32_linear)"/>
<path d="M208.34 194.418C208.34 191.739 208.34 189.804 208.34 189.804V189.655L215.932 188.911L216.229 192.186L208.34 194.418Z" fill="url(#paint33_linear)"/>
<path d="M209.382 134.584L136.888 147.533C134.804 147.831 133.465 149.915 133.762 151.999L142.396 200.372C142.843 202.456 144.778 203.944 146.862 203.498L219.355 190.548C221.439 190.251 222.779 188.167 222.332 186.083L213.699 137.71C213.55 135.626 211.466 134.138 209.382 134.584Z" fill="url(#paint34_linear)"/>
<path d="M213.848 137.71C213.401 135.626 211.466 134.138 209.382 134.584L136.888 147.533C134.804 147.831 133.465 149.915 133.762 151.999L134.507 156.166L214.592 141.877L213.848 137.71Z" fill="url(#paint35_linear)"/>
<path d="M213.996 129.524L130.339 144.557L132.274 154.827L215.783 139.794L213.996 129.524Z" fill="url(#paint36_linear)"/>
<path d="M208.34 155.868L187.649 159.59L186.011 150.659L206.702 146.938L208.34 155.868Z" fill="url(#paint37_linear)"/>
<path d="M140.312 187.72C146.564 186.381 148.797 183.702 148.797 183.702C156.24 185.19 163.534 183.851 163.534 183.851C172.019 181.618 172.614 173.134 172.614 173.134C172.763 163.459 165.618 166.734 165.618 166.734C162.194 168.073 159.068 167.18 159.068 167.18C161.003 162.864 159.068 161.822 159.068 161.822C156.389 160.334 151.03 166.585 151.03 166.585C149.392 168.52 147.606 170.157 146.117 171.348C142.545 171.199 139.121 172.836 137.781 173.581L140.312 187.72Z" fill="url(#paint38_linear)"/>
<path d="M222.481 186.232L219.653 170.455C218.76 170.157 217.718 169.711 216.825 169.413C215.187 168.818 213.55 168.222 211.764 167.776C211.764 167.776 211.764 167.776 211.615 167.776C210.275 167.478 208.489 167.18 207.596 168.52C206.256 170.157 208.935 172.836 209.828 174.027C209.084 173.283 204.023 173.878 203.13 174.027C200.897 174.325 198.813 175.367 197.771 177.45C195.985 181.171 198.218 185.786 200.748 188.614C202.981 191.144 205.958 192.335 209.382 192.781L219.355 190.995C221.588 190.251 222.928 188.316 222.481 186.232Z" fill="url(#paint39_linear)"/>
<path d="M214.294 166.139C214.145 166.139 214.145 166.139 214.294 166.139C212.806 165.841 211.168 165.543 210.126 166.734C208.786 168.371 211.466 171.05 212.359 172.241C211.615 171.497 206.554 172.092 205.66 172.241C203.428 172.539 201.344 173.581 200.302 175.664C198.515 179.385 200.748 183.999 203.279 186.827C211.019 195.46 228.287 189.06 236.92 185.488V174.176C234.836 173.432 232.752 172.688 230.668 171.943C226.947 170.604 223.226 169.264 219.355 167.925C217.569 167.329 215.932 166.585 214.294 166.139Z" fill="url(#paint40_linear)"/>
<path d="M231.264 172.092C231.264 172.092 234.539 178.046 231.264 187.572C244.066 191.442 257.76 193.525 271.158 193.228C280.833 192.93 283.215 185.041 282.322 176.706C282.322 176.706 277.112 165.99 258.058 170.753C257.909 170.901 239.898 173.729 231.264 172.092Z" fill="url(#paint41_linear)"/>
<path d="M142.991 171.794C142.991 171.794 147.606 169.413 151.923 164.352C151.923 164.352 157.282 158.101 159.961 159.589C159.961 159.589 161.896 160.631 159.961 164.948C159.961 164.948 163.087 165.692 166.511 164.501C166.511 164.501 173.656 161.227 173.507 170.901C173.507 170.901 172.912 179.237 164.427 181.618C164.427 181.618 154.9 183.255 146.564 180.576L142.991 171.794Z" fill="url(#paint42_linear)"/>
<path d="M117.239 164.352C116.048 170.455 112.476 176.409 108.159 181.618L108.01 186.679L98.3343 183.999L95.0594 171.05C109.796 175.069 116.793 165.097 117.239 164.352Z" fill="url(#paint43_linear)"/>
<path d="M141.652 170.901L142.991 183.999C143.14 184.893 134.358 188.614 133.613 189.06C126.468 192.483 118.579 194.716 110.838 196.353C105.331 197.544 97.5899 198.735 94.0174 192.93C90.4448 187.125 98.7808 180.874 102.353 178.79C106.67 176.409 111.434 175.367 116.048 174.474C120.216 173.729 124.384 173.432 128.403 173.134C128.552 173.134 139.27 171.943 141.652 170.901Z" fill="url(#paint44_linear)"/>
<path d="M106.224 177.599C106.224 177.599 104.14 192.632 95.8037 194.418C95.8037 194.418 88.2119 190.846 73.7728 165.245C73.7728 165.245 58.887 143.961 73.7728 135.328C73.7728 135.328 84.9371 129.821 91.3379 144.11L106.224 177.599Z" fill="url(#paint45_linear)"/>
<path d="M106.224 177.599L105.331 175.664C105.331 175.664 105.182 182.66 101.907 189.953C105.182 184.744 106.224 177.599 106.224 177.599Z" fill="url(#paint46_linear)"/>
<path d="M137.93 171.794C137.93 171.794 142.396 168.966 147.011 169.115C147.011 169.115 150.285 173.432 149.541 181.32C149.541 181.32 147.308 184.148 140.312 185.488C140.312 185.488 140.014 175.515 137.93 171.794Z" fill="url(#paint47_linear)"/>
<defs>
<linearGradient id="paint0_linear" x1="94.9531" y1="3.74531" x2="213.457" y2="192.402" gradientUnits="userSpaceOnUse">
<stop stop-color="white"/>
<stop offset="1" stop-color="#CAE5F2"/>
</linearGradient>
<linearGradient id="paint1_linear" x1="148.883" y1="125.021" x2="240.986" y2="178.132" gradientUnits="userSpaceOnUse">
<stop offset="0.4705" stop-color="#81D4F7"/>
<stop offset="0.6978" stop-color="#3DA7DE"/>
</linearGradient>
<linearGradient id="paint2_linear" x1="133.695" y1="152.191" x2="103.934" y2="201.796" gradientUnits="userSpaceOnUse">
<stop offset="0.1837" stop-color="#FFEEAA"/>
<stop offset="0.7245" stop-color="#FECD73"/>
</linearGradient>
<linearGradient id="paint3_linear" x1="136.356" y1="186.239" x2="139.165" y2="165.746" gradientUnits="userSpaceOnUse">
<stop offset="0.2042" stop-color="#FFEEAA"/>
<stop offset="0.4881" stop-color="#FECD73"/>
</linearGradient>
<linearGradient id="paint4_linear" x1="191.521" y1="144.568" x2="232.609" y2="153.628" gradientUnits="userSpaceOnUse">
<stop stop-color="#81D4F7"/>
<stop offset="0.465" stop-color="#3DA7DE"/>
</linearGradient>
<linearGradient id="paint5_linear" x1="199.302" y1="109.733" x2="287.296" y2="91.6147" gradientUnits="userSpaceOnUse">
<stop offset="0.4044" stop-color="#F5E0CD"/>
<stop offset="0.7483" stop-color="#DFB28B"/>
</linearGradient>
<linearGradient id="paint6_linear" x1="245.779" y1="129.117" x2="236.18" y2="107.757" gradientUnits="userSpaceOnUse">
<stop stop-color="#F5E0CD"/>
<stop offset="0.6332" stop-color="#DFB28B"/>
</linearGradient>
<linearGradient id="paint7_linear" x1="154.229" y1="179.698" x2="91.3497" y2="171.283" gradientUnits="userSpaceOnUse">
<stop offset="0.2042" stop-color="#FFEEAA"/>
<stop offset="0.4881" stop-color="#FECD73"/>
</linearGradient>
<linearGradient id="paint8_linear" x1="201.369" y1="112.241" x2="290.223" y2="236.91" gradientUnits="userSpaceOnUse">
<stop offset="0.288" stop-color="#81D4F7"/>
<stop offset="0.81" stop-color="#3DA7DE"/>
</linearGradient>
<linearGradient id="paint9_linear" x1="80.983" y1="104.706" x2="114.558" y2="111.541" gradientUnits="userSpaceOnUse">
<stop offset="0.339"/>
<stop offset="1" stop-color="#58595B"/>
</linearGradient>
<linearGradient id="paint10_linear" x1="50.7182" y1="159.498" x2="112.503" y2="81.855" gradientUnits="userSpaceOnUse">
<stop offset="0.2016"/>
<stop offset="1" stop-color="#58595B"/>
</linearGradient>
<linearGradient id="paint11_linear" x1="129.03" y1="137.889" x2="29.8714" y2="225.644" gradientUnits="userSpaceOnUse">
<stop offset="0.2042" stop-color="#FFEEAA"/>
<stop offset="0.5516" stop-color="#FECD73"/>
</linearGradient>
<linearGradient id="paint12_linear" x1="118.35" y1="127.619" x2="64.3992" y2="116.787" gradientUnits="userSpaceOnUse">
<stop offset="0.4651" stop-color="#F5E0CD"/>
<stop offset="0.7854" stop-color="#DFB28B"/>
</linearGradient>
<linearGradient id="paint13_linear" x1="105.343" y1="138.075" x2="55.3139" y2="236.853" gradientUnits="userSpaceOnUse">
<stop offset="0.0954949" stop-color="#DB9F5A"/>
<stop offset="0.8475" stop-color="#FECD73"/>
</linearGradient>
<linearGradient id="paint14_linear" x1="87.9802" y1="133.506" x2="88.6594" y2="98.4091" gradientUnits="userSpaceOnUse">
<stop stop-color="#F5E0CD"/>
<stop offset="0.7072" stop-color="#DFB28B"/>
</linearGradient>
<linearGradient id="paint15_linear" x1="59.0369" y1="108.82" x2="126.553" y2="97.1456" gradientUnits="userSpaceOnUse">
<stop offset="0.5099" stop-color="#F5E0CD"/>
<stop offset="1" stop-color="#ECC19C"/>
</linearGradient>
<linearGradient id="paint16_linear" x1="95.9333" y1="104.216" x2="96.4185" y2="79.1446" gradientUnits="userSpaceOnUse">
<stop stop-color="#F5E0CD"/>
<stop offset="0.7072" stop-color="#DFB28B"/>
</linearGradient>
<linearGradient id="paint17_linear" x1="96.0195" y1="149.037" x2="96.392" y2="129.783" gradientUnits="userSpaceOnUse">
<stop stop-color="#F5E0CD"/>
<stop offset="0.7072" stop-color="#DFB28B"/>
</linearGradient>
<linearGradient id="paint18_linear" x1="216.164" y1="177.28" x2="38.7358" y2="153.537" gradientUnits="userSpaceOnUse">
<stop offset="0.2042" stop-color="#FFEEAA"/>
<stop offset="0.7196" stop-color="#FECD73"/>
</linearGradient>
<linearGradient id="paint19_linear" x1="243.147" y1="107.771" x2="236.788" y2="93.6219" gradientUnits="userSpaceOnUse">
<stop stop-color="#F5E0CD"/>
<stop offset="0.6332" stop-color="#DFB28B"/>
</linearGradient>
<linearGradient id="paint20_linear" x1="249.1" y1="78.2818" x2="257.347" y2="78.2818" gradientUnits="userSpaceOnUse">
<stop offset="0.284" stop-color="#885C3C"/>
<stop offset="0.9483" stop-color="#604026"/>
</linearGradient>
<linearGradient id="paint21_linear" x1="256.675" y1="73.6132" x2="203.22" y2="91.1238" gradientUnits="userSpaceOnUse">
<stop offset="0.5511" stop-color="#F5E0CD"/>
<stop offset="1" stop-color="#ECC19C"/>
</linearGradient>
<linearGradient id="paint22_linear" x1="231.816" y1="84.4285" x2="232.03" y2="65.025" gradientUnits="userSpaceOnUse">
<stop stop-color="#F5E0CD"/>
<stop offset="0.6346" stop-color="#DFB28B"/>
</linearGradient>
<linearGradient id="paint23_linear" x1="248.129" y1="76.3249" x2="254.761" y2="76.3249" gradientUnits="userSpaceOnUse">
<stop offset="0.284" stop-color="#885C3C"/>
<stop offset="0.9483" stop-color="#604026"/>
</linearGradient>
<linearGradient id="paint24_linear" x1="212.749" y1="52.6285" x2="263.705" y2="73.6601" gradientUnits="userSpaceOnUse">
<stop offset="0.2599" stop-color="#ECF8FE"/>
<stop offset="0.8098" stop-color="#A5DFF9"/>
</linearGradient>
<linearGradient id="paint25_linear" x1="204.7" y1="60.8985" x2="277.327" y2="92.4435" gradientUnits="userSpaceOnUse">
<stop offset="0.2622" stop-color="#81D4F7"/>
<stop offset="0.81" stop-color="#3DA7DE"/>
</linearGradient>
<linearGradient id="paint26_linear" x1="237.486" y1="127.451" x2="238.982" y2="113.42" gradientUnits="userSpaceOnUse">
<stop stop-color="#81D4F7"/>
<stop offset="0.7233" stop-color="#3DA7DE"/>
</linearGradient>
<linearGradient id="paint27_linear" x1="230.697" y1="128.761" x2="256.901" y2="97.7019" gradientUnits="userSpaceOnUse">
<stop offset="0.3836" stop-color="#ECF8FE"/>
<stop offset="1" stop-color="#A5DFF9"/>
</linearGradient>
<linearGradient id="paint28_linear" x1="230.558" y1="129.722" x2="229.047" y2="95.3219" gradientUnits="userSpaceOnUse">
<stop offset="0.3836" stop-color="#ECF8FE"/>
<stop offset="0.892" stop-color="#A5DFF9"/>
</linearGradient>
<linearGradient id="paint29_linear" x1="237.874" y1="144.092" x2="271.953" y2="164.908" gradientUnits="userSpaceOnUse">
<stop stop-color="#81D4F7"/>
<stop offset="0.5718" stop-color="#3DA7DE"/>
</linearGradient>
<linearGradient id="paint30_linear" x1="314.665" y1="125.535" x2="198.797" y2="197.208" gradientUnits="userSpaceOnUse">
<stop offset="0.3205" stop-color="#81D4F7"/>
<stop offset="0.5718" stop-color="#3DA7DE"/>
</linearGradient>
<linearGradient id="paint31_linear" x1="268.739" y1="159.519" x2="267.445" y2="180.276" gradientUnits="userSpaceOnUse">
<stop offset="0.0019414" stop-color="#81D4F7"/>
<stop offset="0.4995" stop-color="#3DA7DE"/>
</linearGradient>
<linearGradient id="paint32_linear" x1="249.916" y1="203.125" x2="254.033" y2="173.091" gradientUnits="userSpaceOnUse">
<stop stop-color="#81D4F7"/>
<stop offset="0.1941" stop-color="#279BD0"/>
</linearGradient>
<linearGradient id="paint33_linear" x1="211.477" y1="197.205" x2="212.548" y2="189.391" gradientUnits="userSpaceOnUse">
<stop stop-color="#81D4F7"/>
<stop offset="0.1941" stop-color="#2490C1"/>
</linearGradient>
<linearGradient id="paint34_linear" x1="127.262" y1="214.848" x2="228.837" y2="123.615" gradientUnits="userSpaceOnUse">
<stop offset="0.2356" stop-color="#A97C50"/>
<stop offset="0.636" stop-color="#C49A6C"/>
</linearGradient>
<linearGradient id="paint35_linear" x1="171.532" y1="134.646" x2="176.796" y2="158.454" gradientUnits="userSpaceOnUse">
<stop offset="0.7123" stop-color="#A97C50"/>
<stop offset="0.9776" stop-color="#C49A6C"/>
</linearGradient>
<linearGradient id="paint36_linear" x1="164.843" y1="179.847" x2="179.025" y2="114.915" gradientUnits="userSpaceOnUse">
<stop offset="0.2559" stop-color="#C49A6C"/>
<stop offset="0.8539" stop-color="#FBD28E"/>
</linearGradient>
<linearGradient id="paint37_linear" x1="179.044" y1="166.427" x2="205.999" y2="146.8" gradientUnits="userSpaceOnUse">
<stop offset="0.3809" stop-color="#E6E7E8"/>
<stop offset="0.7735" stop-color="white"/>
</linearGradient>
<linearGradient id="paint38_linear" x1="150.873" y1="156.167" x2="161.87" y2="202.424" gradientUnits="userSpaceOnUse">
<stop offset="0.7123" stop-color="#926B44"/>
<stop offset="0.9776" stop-color="#C49A6C"/>
</linearGradient>
<linearGradient id="paint39_linear" x1="202.13" y1="161.235" x2="219.338" y2="201.885" gradientUnits="userSpaceOnUse">
<stop offset="0.7123" stop-color="#A97C50"/>
<stop offset="0.9776" stop-color="#C49A6C"/>
</linearGradient>
<linearGradient id="paint40_linear" x1="209.515" y1="156.837" x2="228.275" y2="201.156" gradientUnits="userSpaceOnUse">
<stop offset="0.4347" stop-color="#F5E0CD"/>
<stop offset="1" stop-color="#ECC19C"/>
</linearGradient>
<linearGradient id="paint41_linear" x1="248.692" y1="166.565" x2="269.114" y2="206.335" gradientUnits="userSpaceOnUse">
<stop offset="0.2697" stop-color="#81D4F7"/>
<stop offset="0.8944" stop-color="#3DA7DE"/>
</linearGradient>
<linearGradient id="paint42_linear" x1="166.467" y1="162.054" x2="150.076" y2="183.515" gradientUnits="userSpaceOnUse">
<stop offset="0.3038" stop-color="#F5E0CD"/>
<stop offset="0.7923" stop-color="#ECC39E"/>
</linearGradient>
<linearGradient id="paint43_linear" x1="107.688" y1="148.258" x2="102.91" y2="208.385" gradientUnits="userSpaceOnUse">
<stop stop-color="#FFEEAA"/>
<stop offset="0.7245" stop-color="#FECD73"/>
</linearGradient>
<linearGradient id="paint44_linear" x1="127.026" y1="171.802" x2="104.545" y2="207.549" gradientUnits="userSpaceOnUse">
<stop offset="0.4737" stop-color="#FFEEAA"/>
<stop offset="1" stop-color="#FECD73"/>
</linearGradient>
<linearGradient id="paint45_linear" x1="113.089" y1="141.013" x2="60.4688" y2="186.306" gradientUnits="userSpaceOnUse">
<stop offset="0.3838" stop-color="#FFEEAA"/>
<stop offset="0.779" stop-color="#FECD73"/>
</linearGradient>
<linearGradient id="paint46_linear" x1="119.623" y1="184.848" x2="96.6431" y2="181.772" gradientUnits="userSpaceOnUse">
<stop offset="0.2042" stop-color="#FFEEAA"/>
<stop offset="0.7196" stop-color="#FECD73"/>
</linearGradient>
<linearGradient id="paint47_linear" x1="137.892" y1="177.295" x2="149.704" y2="177.295" gradientUnits="userSpaceOnUse">
<stop offset="0.1837" stop-color="white"/>
<stop offset="0.9892" stop-color="#FFFCDB"/>
</linearGradient>
</defs>
</svg>
