<svg width="25" height="26" viewBox="0 0 25 26" fill="none" xmlns="http://www.w3.org/2000/svg">
<path d="M12.2156 25.96C12.7187 25.9484 13.2015 25.7593 13.5785 25.426C13.9556 25.0928 14.2027 24.637 14.2761 24.1391H10.0752C10.1506 24.6505 10.4093 25.117 10.803 25.452C11.1967 25.787 11.6987 25.9675 12.2156 25.96V25.96Z" fill="currentColor"/>
<path d="M24.076 21.0483L23.8045 20.8087C23.0341 20.1224 22.3598 19.3353 21.7999 18.4687C21.1883 17.2727 20.8217 15.9667 20.7217 14.6272V10.6819C20.7184 10.2027 20.6757 9.72451 20.5939 9.25231C19.2411 8.97425 18.0259 8.23725 17.1541 7.16607C16.2824 6.0949 15.8075 4.75537 15.81 3.37428V2.87113C14.9762 2.46078 14.0803 2.19093 13.1585 2.07249V1.06619C13.1585 0.78342 13.0462 0.51223 12.8462 0.31228C12.6463 0.112331 12.3751 0 12.0923 0C11.8096 0 11.5384 0.112331 11.3384 0.31228C11.1385 0.51223 11.0261 0.78342 11.0261 1.06619V2.11242C8.96221 2.40357 7.0733 3.43158 5.70813 5.00666C4.34296 6.58174 3.59372 8.59753 3.59873 10.6819V14.6272C3.49871 15.9667 3.13215 17.2727 2.52056 18.4687C1.9702 19.3331 1.30678 20.1201 0.547907 20.8087L0.276367 21.0483V23.3005H24.076V21.0483Z" fill="currentColor"/>
<path d="M0.276535 21.0483L0.548075 20.8087C1.31842 20.1224 1.9927 19.3353 2.55267 18.4687C3.16426 17.2727 3.53082 15.9667 3.63085 14.6272V10.6819C3.63409 10.2027 3.67683 9.72451 3.75863 9.25231C5.11144 8.97425 6.32661 8.23725 7.19839 7.16607C8.07018 6.0949 8.54502 4.75537 8.54252 3.37428V2.87113C9.37636 2.46078 10.2722 2.19093 11.194 2.07249V1.06619C11.194 0.78342 11.3063 0.51223 11.5063 0.31228C11.7062 0.112331 11.9774 0 12.2602 0C12.543 0 12.8142 0.112331 13.0141 0.31228C13.2141 0.51223 13.3264 0.78342 13.3264 1.06619V2.11242C15.3903 2.40357 17.2792 3.43158 18.6444 5.00666C20.0096 6.58174 20.7588 8.59753 20.7538 10.6819V14.6272C20.8538 15.9667 21.2204 17.2727 21.832 18.4687C22.3823 19.3331 23.0458 20.1201 23.8046 20.8087L24.0762 21.0483V23.3005H0.276535V21.0483Z" fill="currentColor"/>
</svg>
