<svg width="64" height="64" viewBox="0 0 64 64" fill="none"
    xmlns="http://www.w3.org/2000/svg">
    <circle cx="32" cy="32" r="32" fill="#F3F1F1"/>
    <path d="M48.7541 54.0099C47.2869 52.8617 44.6234 50.956 41.7229 49.5475C38.8224 48.1507 37.1182 44.872 37.5809 41.5696C37.5809 41.5222 37.5922 41.4749 37.6035 41.4157C37.6035 41.4157 44.2058 36.7284 43.2917 32.1595C43.2917 32.1595 43.4948 32.1713 43.7995 32.1476C46.7113 31.8635 46.8919 27.3183 44.014 26.833C43.9914 26.833 43.9575 26.8211 43.935 26.8211L43.8447 26.324C44.725 23.0926 46.8693 13.3037 40.3799 14.2506C40.3799 14.2506 35.7187 6.1662 25.8661 10.0605C16.0021 13.9429 18.5753 23.211 18.5753 23.211L19.7942 26.904C17.142 27.5905 17.3903 31.8872 20.2118 32.1595C20.5165 32.1831 20.7309 32.1713 20.7309 32.1713C19.8055 36.7402 26.4078 41.4275 26.4078 41.4275C26.4191 41.4867 26.4191 41.5341 26.4304 41.5814C26.8818 44.8838 25.1776 48.1626 22.2884 49.5593C19.3766 50.9679 16.7244 52.8854 15.2572 54.0217C14.3769 54.6964 13.5982 55.5131 13 56.4719C18.0787 61.1474 24.7262 64 32.0056 64C39.2964 64 45.9439 61.1474 51 56.4482C50.4131 55.5013 49.6344 54.6846 48.7541 54.0099Z" fill="#DBDEE0"/>
</svg>
