<svg width="41" height="40" viewBox="0 0 41 40" fill="none" xmlns="http://www.w3.org/2000/svg">
<path d="M29.1618 28.3496L28.0788 14.1492C28.0117 13.2343 27.2401 12.5157 26.3229 12.5129L24.0974 12.506L24.0872 15.8034C24.086 16.2118 23.7544 16.5413 23.3461 16.5401C22.9382 16.5388 22.6082 16.2072 22.6095 15.7989L22.6196 12.5015L15.8219 12.4806L15.8118 15.778C15.8105 16.1864 15.4785 16.5159 15.0706 16.5146C14.6623 16.5134 14.3327 16.1818 14.334 15.7735L14.3441 12.4761L12.1186 12.4692C11.2014 12.4664 10.4253 13.1803 10.3526 14.0928L9.18195 28.2902C9.09129 29.4273 9.48237 30.5605 10.2546 31.3993C11.0269 32.238 12.1239 32.7217 13.2642 32.7252L25.0529 32.7614C26.1932 32.7649 27.2931 32.288 28.0706 31.4539C28.848 30.6199 29.246 29.4891 29.1618 28.3496ZM22.5232 21.0994L18.69 24.9091C18.5452 25.053 18.3558 25.1248 18.1667 25.1242C17.9775 25.1237 17.7886 25.0507 17.6448 24.9059L15.8592 23.1094C15.5714 22.8198 15.5729 22.3524 15.8624 22.0646C16.152 21.7768 16.6199 21.7782 16.9072 22.0678L18.1722 23.3401L21.4817 20.0509C21.7708 19.7636 22.2387 19.7651 22.5265 20.0541C22.8142 20.3437 22.8128 20.8116 22.5232 21.0994Z" fill="black"/>
<path d="M19.236 7.51397C16.547 7.50571 14.3527 9.68705 14.3444 12.3761L14.3441 12.4761L15.8219 12.4806L15.8222 12.3806C15.828 10.5063 17.3572 8.98596 19.2315 8.99171C21.1058 8.99747 22.6257 10.5272 22.6199 12.4015L22.6196 12.5015L24.0974 12.506L24.0977 12.4061C24.1059 9.71701 21.9251 7.52223 19.236 7.51397Z" fill="black"/>
<ellipse cx="18.8336" cy="21.7141" rx="4.80204" ry="2.91839" transform="rotate(-41.4319 18.8336 21.7141)" fill="black"/>
<circle cx="32" cy="27" r="9" fill="#FBF5CA"/>
<path d="M26.9745 29.5671L27.9774 33.3098L28.6776 32.0176C29.8642 32.7461 31.3088 32.9986 32.7476 32.613C35.5739 31.8557 37.2323 28.7952 36.433 25.8118C35.6336 22.8285 32.6671 21.0072 29.8408 21.7645C28.4019 22.1501 27.2771 23.091 26.6138 24.3152L28.4596 25.4484C28.865 24.7003 29.534 24.1141 30.3562 23.8937C32.052 23.4394 33.8319 24.5321 34.3115 26.3221C34.7912 28.1121 33.7961 29.9485 32.1003 30.4028C31.2267 30.6369 30.3542 30.4638 29.6804 30.0048L30.4544 28.5765L26.96 29.5128L26.9745 29.5671Z" fill="black"/>
</svg>
