<svg width="8" height="17" viewBox="0 0 8 17" fill="none"
    xmlns="http://www.w3.org/2000/svg">
    <path d="M0.940948 0.334992C0.757525 0.329791 0.577403 0.398342 0.425624 0.531221C0.273844 0.6641 0.157947 0.854738 0.0940481 1.07646C0.030149 1.29818 0.021422 1.54003 0.0690802 1.76845C0.116738 1.99686 0.218413 2.20036 0.35997 2.35083L5.76116 8.31632L0.35997 14.2797C0.262048 14.3725 0.180041 14.4903 0.119084 14.6258C0.0581275 14.7614 0.0195343 14.9117 0.00572114 15.0674C-0.00809202 15.223 0.00317275 15.3807 0.0388099 15.5304C0.074447 15.6802 0.133688 15.819 0.212825 15.9379C0.291962 16.0568 0.389288 16.1532 0.49871 16.2214C0.608131 16.2895 0.727291 16.3278 0.848725 16.3339C0.97016 16.3399 1.09125 16.3136 1.20442 16.2566C1.31759 16.1995 1.4204 16.1129 1.50641 16.0022L7.69028 9.18091C7.78739 9.07406 7.86537 8.94145 7.91884 8.79199C7.97231 8.64253 8 8.47986 8 8.31527C8 8.15068 7.97231 7.988 7.91884 7.83854C7.86537 7.68908 7.78739 7.55634 7.69028 7.4495L1.50641 0.621657C1.35019 0.442769 1.14983 0.341068 0.940948 0.33473V0.334992Z" fill="#211F1F"/>
</svg>
