<svg width="12" height="9" viewBox="0 0 12 9" fill="none"
    xmlns="http://www.w3.org/2000/svg">
    <path d="M11.5489 1.24238L10.517 0.212092C10.3755 0.0707151 10.2034 0 10.0011 0C9.79862 0 9.62654 0.0707151 9.48504 0.212092L4.50726 5.1894L2.27638 2.95451C2.13472 2.81308 1.96274 2.74245 1.76046 2.74245C1.55805 2.74245 1.38606 2.81308 1.24441 2.95451L0.21246 3.98483C0.0708021 4.12623 0 4.29799 0 4.50005C0 4.70196 0.0708021 4.87387 0.21246 5.01525L2.95926 7.75759L3.99128 8.78788C4.13286 8.92937 4.3049 9 4.50726 9C4.70954 9 4.88157 8.92918 5.02323 8.78788L6.05523 7.75759L11.5489 2.27275C11.6904 2.13132 11.7614 1.95959 11.7614 1.75753C11.7615 1.55557 11.6904 1.38381 11.5489 1.24238Z" fill="currentColor"/>
</svg>
